# xmcd CD database file
#
# Track frame offsets:
#	150
#	13269
#	26282
#	40564
#	52605
#	63354
#	74143
#	86590
#	99111
#	108494
#	121281
#	131829
#	141538
#	156291
#	167682
#	179930
#	193414
#	207587
#	220736
#	236110
#	251199
#	262364
#
# Disc length: 3672 seconds
#
# Revision: 1
# Processed by: cddbd v1.5.2PL0 Copyright (c) Steve Scherf et al.
# Submitted via: CDex 1.70beta2
#
DISCID=580e5616
DTITLE=Williams,Leona - Yes, Ma´m, He Found Me In A Honky Tonk
DYEAR=2013
DGENRE=Country
TTITLE0=The Baby Song 
TTITLE1=Call Me Crazy Lady 
TTITLE2=Good Nights Make Good Mornings 
TTITLE3=He Took Care Of Me 
TTITLE4=Yes Ma'am
TTITLE5=Any Port In A Storm 
TTITLE6=Red Boiling Springs, Tennessee 
TTITLE7=Touch And Go 
TTITLE8=I Can't Break The Habit 
TTITLE9=I Barely Am Getting By 
TTITLE10=Catching Crawfish 
TTITLE11=Aberdeen 
TTITLE12=Why Be A Dreamer 
TTITLE13=Midnight Blue 
TTITLE14=The Good Times Are Ready To Come 
TTITLE15=My Heart Has Finally Said Goodbye 
TTITLE16=Guitar Pickin' Song 
TTITLE17=You Put Out An Old Flame Last Night 
TTITLE18=We've Had Some Good Times 
TTITLE19=North Alabama 
TTITLE20=Too Close To Home 
TTITLE21=The Bridge That Got Me Over Him 
EXTD=YEAR: 2013
EXTT0=
EXTT1=
EXTT2=
EXTT3=
EXTT4=
EXTT5=
EXTT6=
EXTT7=
EXTT8=
EXTT9=
EXTT10=
EXTT11=
EXTT12=
EXTT13=
EXTT14=
EXTT15=
EXTT16=
EXTT17=
EXTT18=
EXTT19=
EXTT20=
EXTT21=
PLAYORDER=
